<svg width="140" height="32" viewBox="0 0 140 32" fill="none" xmlns="http://www.w3.org/2000/svg">
<path d="M5.33329 25.7777C4.59996 25.7777 3.9724 25.5168 3.45063 24.995C2.92885 24.4732 2.66751 23.8452 2.66663 23.111V7.111C2.66663 6.37767 2.92796 5.75011 3.45063 5.22834C3.97329 4.70656 4.60085 4.44522 5.33329 4.44434H13.3333L16 7.111H26.6666C27.4 7.111 28.028 7.37234 28.5506 7.895C29.0733 8.41767 29.3342 9.04523 29.3333 9.77767V23.111C29.3333 23.8443 29.0724 24.4723 28.5506 24.995C28.0288 25.5177 27.4008 25.7786 26.6666 25.7777H5.33329Z" fill="#035BFF"/>
<g clip-path="url(#clip0_995_61)">
<path d="M11.5556 13.0371L8.59265 16.0001L11.5556 18.963" stroke="white" stroke-width="1.48148" stroke-linecap="round" stroke-linejoin="round"/>
<path d="M14.8889 20.4446L17.1111 11.5557" stroke="white" stroke-width="1.48148" stroke-linecap="round"/>
<path d="M20.4445 13.0371L23.4074 16.0001L20.4445 18.963" stroke="white" stroke-width="1.48148" stroke-linecap="round" stroke-linejoin="round"/>
</g>
<path d="M46.66 8.576C48.292 8.576 49.696 8.876 50.872 9.476C52.048 10.076 52.948 10.922 53.572 12.014C54.196 13.094 54.508 14.354 54.508 15.794C54.508 17.234 54.196 18.494 53.572 19.574C52.96 20.654 52.06 21.494 50.872 22.094C49.696 22.694 48.292 22.994 46.66 22.994H41.548V8.576H46.66ZM46.714 21.284C48.55 21.284 49.99 20.804 51.034 19.844C52.078 18.884 52.6 17.534 52.6 15.794C52.6 14.054 52.078 12.698 51.034 11.726C49.99 10.754 48.55 10.268 46.714 10.268H43.438V21.284H46.714ZM61.4632 23.246C60.5032 23.246 59.6332 23.012 58.8532 22.544C58.0852 22.076 57.4792 21.428 57.0352 20.6C56.5912 19.772 56.3692 18.854 56.3692 17.846C56.3692 16.838 56.5912 15.92 57.0352 15.092C57.4792 14.264 58.0852 13.616 58.8532 13.148C59.6332 12.68 60.5032 12.446 61.4632 12.446C62.3392 12.446 63.0952 12.62 63.7312 12.968C64.3672 13.316 64.8292 13.736 65.1172 14.228V12.698H66.9712V22.994H65.1172V21.464C64.8292 21.956 64.3672 22.376 63.7312 22.724C63.0952 23.072 62.3392 23.246 61.4632 23.246ZM61.6252 21.608C62.3092 21.608 62.9152 21.446 63.4432 21.122C63.9832 20.786 64.4032 20.336 64.7032 19.772C65.0032 19.196 65.1532 18.554 65.1532 17.846C65.1532 17.138 65.0032 16.502 64.7032 15.938C64.4032 15.362 63.9832 14.912 63.4432 14.588C62.9152 14.252 62.3092 14.084 61.6252 14.084C60.9532 14.084 60.3532 14.246 59.8252 14.57C59.3092 14.894 58.9072 15.344 58.6192 15.92C58.3312 16.496 58.1872 17.138 58.1872 17.846C58.1872 18.554 58.3312 19.196 58.6192 19.772C58.9072 20.348 59.3092 20.798 59.8252 21.122C60.3532 21.446 60.9532 21.608 61.6252 21.608ZM74.4358 23.246C73.4758 23.246 72.6058 23.012 71.8258 22.544C71.0578 22.076 70.4518 21.428 70.0078 20.6C69.5638 19.772 69.3418 18.854 69.3418 17.846C69.3418 16.838 69.5638 15.92 70.0078 15.092C70.4518 14.264 71.0578 13.616 71.8258 13.148C72.6058 12.68 73.4758 12.446 74.4358 12.446C75.3118 12.446 76.0678 12.62 76.7038 12.968C77.3398 13.316 77.8018 13.736 78.0898 14.228V8.126H79.9438V22.994H78.0898V21.464C77.8018 21.956 77.3398 22.376 76.7038 22.724C76.0678 23.072 75.3118 23.246 74.4358 23.246ZM74.5978 21.608C75.2818 21.608 75.8878 21.446 76.4158 21.122C76.9558 20.786 77.3758 20.336 77.6758 19.772C77.9758 19.196 78.1258 18.554 78.1258 17.846C78.1258 17.138 77.9758 16.502 77.6758 15.938C77.3758 15.362 76.9558 14.912 76.4158 14.588C75.8878 14.252 75.2818 14.084 74.5978 14.084C73.9258 14.084 73.3258 14.246 72.7978 14.57C72.2818 14.894 71.8798 15.344 71.5918 15.92C71.3038 16.496 71.1598 17.138 71.1598 17.846C71.1598 18.554 71.3038 19.196 71.5918 19.772C71.8798 20.348 72.2818 20.798 72.7978 21.122C73.3258 21.446 73.9258 21.608 74.5978 21.608ZM87.4085 23.246C86.4485 23.246 85.5785 23.012 84.7985 22.544C84.0305 22.076 83.4245 21.428 82.9805 20.6C82.5365 19.772 82.3145 18.854 82.3145 17.846C82.3145 16.838 82.5365 15.92 82.9805 15.092C83.4245 14.264 84.0305 13.616 84.7985 13.148C85.5785 12.68 86.4485 12.446 87.4085 12.446C88.2845 12.446 89.0405 12.62 89.6765 12.968C90.3125 13.316 90.7745 13.736 91.0625 14.228V12.698H92.9165V22.994H91.0625V21.464C90.7745 21.956 90.3125 22.376 89.6765 22.724C89.0405 23.072 88.2845 23.246 87.4085 23.246ZM87.5705 21.608C88.2545 21.608 88.8605 21.446 89.3885 21.122C89.9285 20.786 90.3485 20.336 90.6485 19.772C90.9485 19.196 91.0985 18.554 91.0985 17.846C91.0985 17.138 90.9485 16.502 90.6485 15.938C90.3485 15.362 89.9285 14.912 89.3885 14.588C88.8605 14.252 88.2545 14.084 87.5705 14.084C86.8985 14.084 86.2985 14.246 85.7705 14.57C85.2545 14.894 84.8525 15.344 84.5645 15.92C84.2765 16.496 84.1325 17.138 84.1325 17.846C84.1325 18.554 84.2765 19.196 84.5645 19.772C84.8525 20.348 85.2545 20.798 85.7705 21.122C86.2985 21.446 86.8985 21.608 87.5705 21.608ZM102.852 21.284H110.772V22.994H100.962V8.576H102.852V21.284ZM117.028 23.246C116.068 23.246 115.198 23.012 114.418 22.544C113.65 22.076 113.044 21.428 112.6 20.6C112.156 19.772 111.934 18.854 111.934 17.846C111.934 16.838 112.156 15.92 112.6 15.092C113.044 14.264 113.65 13.616 114.418 13.148C115.198 12.68 116.068 12.446 117.028 12.446C117.904 12.446 118.66 12.62 119.296 12.968C119.932 13.316 120.394 13.736 120.682 14.228V12.698H122.536V22.994H120.682V21.464C120.394 21.956 119.932 22.376 119.296 22.724C118.66 23.072 117.904 23.246 117.028 23.246ZM117.19 21.608C117.874 21.608 118.48 21.446 119.008 21.122C119.548 20.786 119.968 20.336 120.268 19.772C120.568 19.196 120.718 18.554 120.718 17.846C120.718 17.138 120.568 16.502 120.268 15.938C119.968 15.362 119.548 14.912 119.008 14.588C118.48 14.252 117.874 14.084 117.19 14.084C116.518 14.084 115.918 14.246 115.39 14.57C114.874 14.894 114.472 15.344 114.184 15.92C113.896 16.496 113.752 17.138 113.752 17.846C113.752 18.554 113.896 19.196 114.184 19.772C114.472 20.348 114.874 20.798 115.39 21.122C115.918 21.446 116.518 21.608 117.19 21.608ZM130.954 23.246C130.078 23.246 129.322 23.072 128.686 22.724C128.05 22.376 127.588 21.956 127.3 21.464V22.994H125.446V8.126H127.3V14.228C127.588 13.736 128.05 13.316 128.686 12.968C129.322 12.62 130.078 12.446 130.954 12.446C131.914 12.446 132.778 12.68 133.546 13.148C134.326 13.616 134.938 14.264 135.382 15.092C135.826 15.92 136.048 16.838 136.048 17.846C136.048 18.854 135.826 19.772 135.382 20.6C134.938 21.428 134.326 22.076 133.546 22.544C132.778 23.012 131.914 23.246 130.954 23.246ZM130.792 21.608C131.464 21.608 132.058 21.446 132.574 21.122C133.102 20.798 133.51 20.348 133.798 19.772C134.086 19.196 134.23 18.554 134.23 17.846C134.23 17.138 134.086 16.496 133.798 15.92C133.51 15.344 133.102 14.894 132.574 14.57C132.058 14.246 131.464 14.084 130.792 14.084C130.108 14.084 129.496 14.252 128.956 14.588C128.428 14.912 128.014 15.362 127.714 15.938C127.414 16.502 127.264 17.138 127.264 17.846C127.264 18.554 127.414 19.196 127.714 19.772C128.014 20.336 128.428 20.786 128.956 21.122C129.496 21.446 130.108 21.608 130.792 21.608Z" fill="#212121"/>
<defs>
<clipPath id="clip0_995_61">
<rect width="17.7778" height="17.7778" fill="white" transform="translate(7.11108 7.11133)"/>
</clipPath>
</defs>
</svg>
