<svg width="36" height="36" viewBox="0 0 36 36" fill="none" xmlns="http://www.w3.org/2000/svg">
<path d="M6 29C5.175 29 4.469 28.7065 3.882 28.1195C3.295 27.5325 3.001 26.826 3 26V8C3 7.175 3.294 6.469 3.882 5.882C4.47 5.295 5.176 5.001 6 5H15L18 8H30C30.825 8 31.5315 8.294 32.1195 8.882C32.7075 9.47 33.001 10.176 33 11V26C33 26.825 32.7065 27.5315 32.1195 28.1195C31.5325 28.7075 30.826 29.001 30 29H6Z" fill="#0336FF"/>
<path d="M13.0001 14.667L9.66675 18.0003L13.0001 21.3337" stroke="white" stroke-width="1.66667" stroke-linecap="round" stroke-linejoin="round"/>
<path d="M16.75 23L19.25 13" stroke="white" stroke-width="1.66667" stroke-linecap="round"/>
<path d="M23 14.667L26.3333 18.0003L23 21.3337" stroke="white" stroke-width="1.66667" stroke-linecap="round" stroke-linejoin="round"/>
</svg>
